#!OML:ASF X:\für Bonn\!DataBase\2005_08_10_Bjorn_Final\c3d\bjorn.ASF
:FULLY-SPECIFIED
:DEGREES
63
root 2.34423 18.7016 7.04742 -191.801 -0.0569431 178.719
lowerback -9.16256 -0.803537 2.88991
upperback 10.2258 -0.643049 -1.39882
thorax 16.6435 0.486448 -3.27058
lowerneck -2.92522 0.0999015 6.04639
upperneck 17.0891 1.74698 -7.01385
head 5.70884 1.15939 -3.08526
rclavicle -2.87306e-016 -1.03492e-014
rhumerus -315.045 15.2081 275.876
rradius 42.8873
rwrist 21.6836
rhand -39.7513 24.6051
rfingers 7.12502
rthumb -12.728 -4.98696
lclavicle -2.87306e-016 -1.03492e-014
lhumerus 34.0669 -22.1764 86.309
lradius 43.1798
lwrist 42.9532
lhand -35.313 -1.95534
lfingers 7.12502
lthumb -8.44687 27.8557
rfemur -0.904917 -4.95584 15.1942
rtibia 36.0277
rfoot -21.5874 11.8433
rtoes -7.51324
lfemur -5.14805 -8.40665 -14.6725
ltibia 50.8214
lfoot -10.7414 9.91247
ltoes -22.0295
64
root 2.36721 18.7014 6.99201 -191.815 -0.104427 178.633
lowerback -9.28334 -0.772324 2.72787
upperback 10.0376 -0.597592 -1.488
thorax 16.4913 0.474434 -3.27402
lowerneck -2.74031 0.140436 6.00369
upperneck 17.5439 1.86643 -6.75451
head 5.82562 1.26182 -2.99062
rclavicle -3.16192e-015 -2.43511e-015
rhumerus -314.164 15.2521 276.084
rradius 43.0442
rwrist 21.8036
rhand -39.8947 24.3653
rfingers 7.12502
rthumb -12.8663 -5.21812
lclavicle -3.16192e-015 -2.43511e-015
lhumerus 34.8784 -21.8447 86.5147
lradius 43.7978
lwrist 42.9761
lhand -35.2534 -2.32427
lfingers 7.12502
lthumb -8.38934 27.4891
rfemur -0.636132 -4.84341 15.2056
rtibia 35.9502
rfoot -21.817 11.7153
rtoes -7.41138
lfemur -5.42916 -8.24039 -14.7764
ltibia 50.4268
lfoot -10.9022 9.81572
ltoes -21.8933
65
root 2.38947 18.7018 6.93595 -191.814 -0.140644 178.556
lowerback -9.41576 -0.744853 2.56125
upperback 9.84937 -0.557748 -1.56591
thorax 16.3469 0.459062 -3.26306
lowerneck -2.53232 0.202905 5.98686
upperneck 17.9509 2.01228 -6.5055
head 5.92558 1.37827 -2.90139
rclavicle -4.47266e-015 -1.73937e-015
rhumerus -313.315 15.2904 276.331
rradius 43.2754
rwrist 21.9414
rhand -40.1063 24.2894
rfingers 7.12502
rthumb -13.0703 -5.28103
lclavicle -4.47266e-015 -1.73937e-015
lhumerus 35.6617 -21.5111 86.7694
lradius 44.4562
lwrist 43.026
lhand -35.0744 -2.75169
lfingers 7.12502
lthumb -8.21657 27.0685
rfemur -0.369018 -4.69553 15.2343
rtibia 35.8379
rfoot -22.0343 11.573
rtoes -7.15055
lfemur -5.72383 -8.09876 -14.8787
ltibia 50.0285
lfoot -11.1274 9.69439
ltoes -21.8456
66
root 2.41081 18.7031 6.87855 -191.816 -0.151027 178.479
lowerback -9.53238 -0.709713 2.41398
upperback 9.65622 -0.50771 -1.65515
thorax 16.1874 0.451908 -3.27265
lowerneck -2.33409 0.267117 6.0424
upperneck 18.3746 2.16261 -6.28389
head 6.03351 1.50149 -2.83254
rclavicle -9.38015e-016 1.49089e-015
rhumerus -312.557 15.3185 276.549
rradius 43.6194
rwrist 22.0391
rhand -40.4548 24.5898
rfingers 7.12502
rthumb -13.4062 -4.95888
lclavicle -9.38015e-016 1.49089e-015
lhumerus 36.3873 -21.2285 87.0137
lradius 45.2286
lwrist 43.1796
lhand -34.8966 -3.16755
lfingers 7.12502
lthumb -8.04496 26.6593
rfemur -0.088967 -4.56747 15.2523
rtibia 35.7059
rfoot -22.2182 11.4723
rtoes -6.88171
lfemur -6.01808 -7.93723 -14.9756
ltibia 49.6336
lfoot -11.3833 9.5193
ltoes -21.9211
67
root 2.43122 18.7046 6.82084 -191.817 -0.165819 178.432
lowerback -9.657 0.0895393 2.15085
upperback 9.5064 -0.652351 -1.61898
thorax 16.0944 -0.177288 -3.26811
lowerneck -2.17409 0.338897 6.07813
upperneck 18.7846 2.32072 -6.06772
head 6.14439 1.6257 -2.76098
rclavicle -2.23633e-015 3.18055e-015
rhumerus -311.777 15.3448 276.791
rradius 44.0027
rwrist 22.1766
rhand -40.9584 25.1366
rfingers 7.12502
rthumb -13.8915 -4.3794
lclavicle -2.23633e-015 3.18055e-015
lhumerus 37.1185 -20.9562 87.2758
lradius 46.1187
lwrist 43.4112
lhand -34.7278 -3.48267
lfingers 7.12502
lthumb -7.88203 26.3504
rfemur 0.199849 -4.47307 15.297
rtibia 35.5608
rfoot -22.4195 11.3985
rtoes -6.64848
lfemur -6.32974 -7.79295 -15.0404
ltibia 49.2476
lfoot -11.6654 9.24628
ltoes -21.8214
68
root 2.45014 18.7069 6.76335 -191.805 -0.209134 178.375
lowerback -9.76156 0.0600155 2.01078
upperback 9.31651 -0.626169 -1.70024
thorax 15.9277 -0.167471 -3.26794
lowerneck -1.93493 0.404718 6.12366
upperneck 19.1371 2.46696 -5.82542
head 6.22264 1.74847 -2.68309
rclavicle -3.85145e-015 1.17283e-014
rhumerus -311.078 15.3789 277.04
rradius 44.5327
rwrist 22.2583
rhand -41.4592 25.6588
rfingers 7.12502
rthumb -14.3741 -3.82353
lclavicle -3.85145e-015 1.17283e-014
lhumerus 37.778 -20.7098 87.5474
lradius 47.1026
lwrist 43.5797
lhand -34.5917 -3.67166
lfingers 7.12502
lthumb -7.75071 26.1663
rfemur 0.475228 -4.38976 15.3228
rtibia 35.4176
rfoot -22.6012 11.2855
rtoes -6.438
lfemur -6.67669 -7.66929 -15.1183
ltibia 48.8677
lfoot -11.8935 8.89967
ltoes -21.929
69
root 2.4683 18.7074 6.70484 -191.783 -0.227567 178.315
lowerback -9.89807 0.0400128 1.86203
upperback 9.1389 -0.589991 -1.76948
thorax 15.7985 -0.154625 -3.24832
lowerneck -1.69594 0.459777 6.13799
upperneck 19.4921 2.60249 -5.57681
head 6.30066 1.86582 -2.59819
rclavicle -1.13804e-014 -1.05356e-014
rhumerus -310.415 15.4387 277.374
rradius 45.0961
rwrist 22.1939
rhand -42.0462 26.3219
rfingers 7.12502
rthumb -14.9396 -3.1193
lclavicle -1.13804e-014 -1.05356e-014
lhumerus 38.4481 -20.4704 87.8383
lradius 48.1701
lwrist 43.657
lhand -34.5697 -3.67687
lfingers 7.12502
lthumb -7.7295 26.1619
rfemur 0.731901 -4.33204 15.3305
rtibia 35.2843
rfoot -22.7812 11.2508
rtoes -6.22957
lfemur -7.02456 -7.53517 -15.1995
ltibia 48.4913
lfoot -12.0919 8.50561
ltoes -22.0301
70
root 2.48478 18.7062 6.64679 -191.772 -0.265888 178.242
lowerback -10.0059 0.00645986 1.70258
upperback 8.9649 -0.572115 -1.84405
thorax 15.6545 -0.152165 -3.23241
lowerneck -1.41007 0.513966 6.11913
upperneck 19.7878 2.73248 -5.30602
head 6.35081 1.97946 -2.50082
rclavicle -2.31087e-015 9.93923e-016
rhumerus -309.816 15.4669 277.61
rradius 45.7575
rwrist 22.4753
rhand -42.53 26.5961
rfingers 7.12502
rthumb -15.4057 -2.80984
lclavicle -2.31087e-015 9.93923e-016
lhumerus 39.0581 -20.2247 88.1718
lradius 49.306
lwrist 43.5775
lhand -34.5833 -3.64764
lfingers 7.12502
lthumb -7.7426 26.1906
rfemur 1.00393 -4.28315 15.3201
rtibia 35.1569
rfoot -22.991 11.1586
rtoes -6.12043
lfemur -7.37773 -7.42015 -15.3069
ltibia 48.1179
lfoot -12.2943 8.08488
ltoes -22.201
71
root 2.5018 18.7055 6.5882 -191.749 -0.289977 178.157
lowerback -10.1451 -0.00899052 1.52238
upperback 8.82327 -0.531252 -1.92128
thorax 15.5727 -0.141432 -3.20497
lowerneck -1.17424 0.56175 6.14128
upperneck 20.0491 2.84168 -5.05941
head 6.39807 2.08027 -2.41912
rclavicle 4.1869e-015 -4.17448e-015
rhumerus -309.235 15.4195 277.834
rradius 46.5982
rwrist 22.9024
rhand -42.8549 26.5561
rfingers 7.12502
rthumb -15.7186 -2.82558
lclavicle 4.1869e-015 -4.17448e-015
lhumerus 39.7075 -20.0777 88.4157
lradius 50.507
lwrist 43.3995
lhand -34.6129 -3.99804
lfingers 7.12502
lthumb -7.77112 25.8392
rfemur 1.25268 -4.22789 15.2972
rtibia 35.0375
rfoot -23.173 11.1188
rtoes -5.87779
lfemur -7.73371 -7.30694 -15.4175
ltibia 47.7427
lfoot -12.5016 7.60797
ltoes -22.1308
72
root 2.51759 18.7052 6.52861 -191.706 -0.304226 178.095
lowerback -10.302 -0.0173777 1.38601
upperback 8.70083 -0.490504 -2.00665
thorax 15.5264 -0.125519 -3.21292
lowerneck -1.03326 0.621827 6.19699
upperneck 20.3161 2.94958 -4.79889
head 6.464 2.17977 -2.33791
rclavicle 6.60959e-015 1.2921e-014
rhumerus -308.679 15.3576 278.053
rradius 47.415
rwrist 23.3929
rhand -43.3326 26.5838
rfingers 7.12502
rthumb -16.1787 -2.76101
lclavicle 6.60959e-015 1.2921e-014
lhumerus 40.3833 -19.9879 88.6142
lradius 51.7399
lwrist 43.0673
lhand -34.6052 -4.50372
lfingers 7.12502
lthumb -7.76375 25.3337
rfemur 1.48712 -4.16132 15.3033
rtibia 34.9129
rfoot -23.3551 11.0425
rtoes -5.59923
lfemur -8.11568 -7.20527 -15.5022
ltibia 47.3734
lfoot -12.7188 7.12241
ltoes -22.0435
73
root 2.53276 18.705 6.46846 -191.668 -0.313525 178.047
lowerback -10.4649 -0.0305945 1.25898
upperback 8.61818 -0.464602 -2.08509
thorax 15.5317 -0.116956 -3.22397
lowerneck -0.996468 0.698182 6.21191
upperneck 20.5763 3.05796 -4.50219
head 6.54517 2.27357 -2.2371
rclavicle 2.07481e-015 1.86858e-014
rhumerus -308.095 15.3244 278.313
rradius 48.3245
rwrist 23.5627
rhand -43.7075 26.8337
rfingers 7.12502
rthumb -16.5396 -2.48139
lclavicle 2.07481e-015 1.86858e-014
lhumerus 41.1009 -19.9186 88.7491
lradius 53.0625
lwrist 42.6143
lhand -34.7531 -4.82974
lfingers 7.12502
lthumb -7.90651 25.0024
rfemur 1.72526 -4.1161 15.3183
rtibia 34.793
rfoot -23.5606 10.9587
rtoes -5.45754
lfemur -8.49825 -7.10356 -15.5753
ltibia 47.0087
lfoot -12.9201 6.64385
ltoes -22.0866
